#!OML:ASF F:\VICON\USERDATA\INSTALL\rory3\rory3.ASF
:FULLY-SPECIFIED
:DEGREES
82
root 0.45473073721743923 18.02521585037457 14.415415521613475 10.183961120913603 -0.4096963804701006 -1.6781735303074021
lfemur -12.543200130494615 7.798555362749779 -17.499098491852216
ltibia 16.115256011823547
lfoot -8.752428974576274 4.716310493094693
ltoes -6.25698655371867
rfemur -13.000155975608843 -3.016136591485399 20.41593672358139
rtibia 18.46586929123707
rfoot -12.787785115539968 0.9854946968444915
rtoes 14.871974313383555
lowerback -3.1226183291618597 0.3000769135391265 -0.517388081947732
upperback 1.2399293522366452 0.32313590829308503 1.2694730133376244
thorax 3.8546290697291834 0.15753851504346994 1.6141825060639656
lowerneck -11.506443919406582 -0.7110624876354169 -2.2103667260317
upperneck 28.665838920252547 -1.2427513138692718 2.709086902447666
head 11.379730364794494 -0.4311206165627464 1.1299556859214028
lclavicle -1.5399665260307928e-15 5.070655156054535e-16
lhumerus -29.033145804600313 -1.2274788354184871 87.24138573028131
lradius 20.311689309378924
lwrist 6.8871132992773285
lhand -23.348382925093592 -4.814702741191922
lfingers 7.125019999999999
lthumb 3.10654675735043 25.141620565023693
rclavicle -1.5399665260307928e-15 5.070655156054535e-16
rhumerus -25.18436033778696 -16.586391459975875 -79.46355936995613
rradius 22.214412894162137
rwrist 39.77332690947905
rhand -18.26703726767157 -27.063003152054133
rfingers 7.125019999999999
rthumb 8.01270195960419 -56.883818711290935
83
root 0.4553311563408632 18.03705192293418 14.401933967360414 10.088834507701288 -0.45513705554177836 -1.6765579037353218
lfemur -12.25707594546362 7.849191812744646 -17.447409951290467
ltibia 15.927056641601824
lfoot -8.801384371547941 4.8285361113774155
ltoes -6.298925505332101
rfemur -12.781353538701264 -3.019485628757848 20.430185116034043
rtibia 18.285723893759105
rfoot -12.838465137734133 0.6853265086371594
rtoes 14.63830455545074
lowerback -3.2312627952949127 0.2597788709393305 -0.4728703439748374
upperback 1.2662838634724514 0.2634317420964229 1.2573775104193772
thorax 3.9954309097555787 0.12955393214929695 1.6018383948848258
lowerneck -11.56775845058275 -0.6443932783258425 -2.187030663573379
upperneck 28.81151605170303 -1.1356570820468004 2.6608942681614876
head 11.460642683576129 -0.3939041881476258 1.124611544520988
lclavicle -1.522069948658701e-15 5.367077369299475e-16
lhumerus -28.208823747916806 -1.4765612584855532 87.36944774983165
lradius 20.443390438946324
lwrist 6.442706547032838
lhand -23.271624281648272 -4.7261578832664295
lfingers 7.125019999999999
lthumb 3.1806748971687435 25.22988069077216
rclavicle -1.522069948658701e-15 5.367077369299474e-16
rhumerus -25.213028476178433 -16.380739607343205 -79.60543304047714
rradius 22.288084792420914
rwrist 39.51168027628582
rhand -18.107959248446242 -26.976867578820457
rfingers 7.125019999999999
rthumb 8.166195465190105 -56.79137064501629
84
root 0.4515193196186812 18.05384471623455 14.685811895705505 9.750270541572386 -0.5270846414279791 -1.67002731810677
lfemur -12.124559776294902 7.858433540432751 -17.45556025039743
ltibia 15.481566726329016
lfoot -8.756925693992287 4.874075149310881
ltoes -6.343215222783526
rfemur -12.702148945958902 -3.047453227244532 20.411327853329485
rtibia 17.94507788623855
rfoot -12.824284743993656 0.6279353759596491
rtoes 14.52271784664308
lowerback -3.4417568000850913 0.19734953630084945 -0.4765711492419772
upperback 1.2244976117610593 0.18495248218355603 1.2374741295336413
thorax 4.082357649650491 0.08635608781072206 1.584948995800542
lowerneck -11.593295398597096 -0.5861754969022405 -2.182160596986927
upperneck 28.7943642666061 -1.0417397553720595 2.5983775846566672
head 11.475893983579917 -0.36254086850486356 1.1171652071661078
lclavicle -1.585467309124566e-15 4.501110770712482e-16
lhumerus -27.57775318421067 -1.6843898108859592 87.5639809040633
lradius 20.613307243822
lwrist 6.484151253057091
lhand -23.31014713554736 -4.804438493787829
lfingers 7.125019999999999
lthumb 3.143488472076457 25.154316611523818
rclavicle -1.5854673091245661e-15 4.501110770712482e-16
rhumerus -25.302848479688404 -16.304553623505814 -79.85955548072955
rradius 22.406614004682623
rwrist 39.24902262365686
rhand -18.025951437621874 -26.920560063062755
rfingers 7.125019999999999
rthumb 8.245324485537699 -56.733022063776495
85
root 0.45426351511294677 18.034517173623577 14.524610521665085 9.658141887632379 -0.5566423500412692 -1.6312255555160224
lfemur -11.944262356480658 7.916232634315835 -17.50196198199612
ltibia 15.5750808285997
lfoot -8.999085885067345 4.951398841642053
ltoes -6.3457146073194295
rfemur -12.57822433623577 -3.047717134564966 20.385538499332327
rtibia 18.07469419950577
rfoot -13.025678613481858 0.4534618738143106
rtoes 14.29859884213602
lowerback -3.5254278937651744 0.1678960391972716 -0.49309412309680756
upperback 1.2174312327728103 0.14213836304597388 1.2178267530720555
thorax 4.150096363808652 0.06803778664914482 1.5758425703596326
lowerneck -11.605519968197152 -0.5404486286458311 -2.1665951119898974
upperneck 28.89739331735052 -0.947840518724067 2.5188683141952484
head 11.527125795236511 -0.3350449010273748 1.1030779583838155
lclavicle -1.5783240641470694e-15 4.554166002141801e-16
lhumerus -27.0457731995988 -2.0360458248144004 87.80944433935524
lradius 20.714776746063944
lwrist 6.609751640950414
lhand -23.24990225473938 -4.797809095522089
lfingers 7.125019999999999
lthumb 3.201671777765757 25.158406581313898
rclavicle -1.5783240641470696e-15 4.554166002141802e-16
rhumerus -25.225238530782757 -16.36000425493624 -80.01213252875104
rradius 22.562601834081097
rwrist 38.91149708108651
rhand -17.928796173895314 -26.876054847783873
rfingers 7.125019999999999
rthumb 8.339062255945262 -56.683009731904356
